<?xml version="1.0" encoding="UTF-8" standalone="no"?>
<svg
   xmlns:dc="http://purl.org/dc/elements/1.1/"
   xmlns:cc="http://creativecommons.org/ns#"
   xmlns:rdf="http://www.w3.org/1999/02/22-rdf-syntax-ns#"
   xmlns:svg="http://www.w3.org/2000/svg"
   xmlns="http://www.w3.org/2000/svg"
   xmlns:sodipodi="http://sodipodi.sourceforge.net/DTD/sodipodi-0.dtd"
   xmlns:inkscape="http://www.inkscape.org/namespaces/inkscape"
   version="1.1"
   id="svg3713"
   width="144"
   height="136.64"
   viewBox="0 0 144 136.64"
   sodipodi:docname="afrika2.svg"
   inkscape:version="1.0.2 (e86c870879, 2021-01-15)">
  <metadata
     id="metadata3719">
    <rdf:RDF>
      <cc:Work
         rdf:about="">
        <dc:format>image/svg+xml</dc:format>
        <dc:type
           rdf:resource="http://purl.org/dc/dcmitype/StillImage" />
        <dc:title></dc:title>
      </cc:Work>
    </rdf:RDF>
  </metadata>
  <defs
     id="defs3717" />
  <sodipodi:namedview
     pagecolor="#ffffff"
     bordercolor="#666666"
     borderopacity="1"
     objecttolerance="10"
     gridtolerance="10"
     guidetolerance="10"
     inkscape:pageopacity="0"
     inkscape:pageshadow="2"
     inkscape:window-width="1600"
     inkscape:window-height="847"
     id="namedview3715"
     showgrid="false"
     inkscape:zoom="3.9519907"
     inkscape:cx="74.990097"
     inkscape:cy="72.843155"
     inkscape:window-x="-8"
     inkscape:window-y="-8"
     inkscape:window-maximized="1"
     inkscape:current-layer="svg3713"
     inkscape:document-rotation="0" />
  <g
     inkscape:groupmode="layer"
     id="layer1"
     inkscape:label="Layer 1">
    <path
       id="path3724"
       d="m 25.559038,18.566291 c 0.446623,-0.457807 0.880956,-0.929124 1.306966,-1.4064 0.316842,-0.296567 0.555711,-0.660913 0.798388,-1.017852 0.211482,-0.353355 0.580761,-0.543093 0.847487,-0.837108 0.279615,-0.279331 0.599125,-0.531553 0.942197,-0.731416 1.719661,-1.225209 3.698968,-2.2032 5.480879,-3.222937 1.429206,-0.817894 -2.854604,1.642427 -4.281906,2.463641 1.674637,-1.092301 0.859464,-0.566008 4.893964,-2.814114 0.06849,-0.03816 0.153693,-0.03293 0.227853,-0.05838 0.224554,-0.07705 0.439695,-0.16367 0.637864,-0.293195 0.427829,-0.20556 0.858272,-0.38227 1.326425,-0.472702 0.414165,-0.1796765 0.837524,-0.3520444 1.276526,-0.4636429 0.386235,-0.2609171 0.839765,-0.3160618 1.292291,-0.3529185 0.51892,-0.031843 1.038999,-0.022361 1.558516,-0.019959 0.562627,0.00168 1.125258,0.00139 1.687887,0.00125 0.540703,-0.00343 1.066106,0.1620489 1.579395,0.3158099 0.08323,0.020398 0.168645,0.033354 0.249689,0.061193 0.156333,0.053702 0.300628,0.1384627 0.456008,0.1948614 0.21309,0.077346 0.426691,0.1172021 0.638689,0.2001661 0.460081,0.276552 0.985103,0.372859 1.458803,0.618423 0.458477,0.244483 0.962173,0.325662 1.47294,0.366003 0.538597,0.05501 1.059019,0.01391 1.588449,-0.07837 0.584088,-0.144019 1.160405,-0.28167 1.76166,-0.351745 0.744737,-0.196268 1.481773,-0.374856 2.248368,-0.471911 0.756824,-0.168194 1.518629,-0.3213954 2.266203,-0.5285419 0.598223,-0.271139 1.217763,-0.503538 1.851887,-0.6771343 0.539114,-0.1321739 1.094919,-0.1496567 1.647024,-0.1593723 0.583443,0.075694 0.827237,0.5399182 0.959194,1.0588755 0.08537,0.633522 0.07009,1.276542 0.06433,1.914486 0.0059,0.643904 0.1559,1.261825 0.38564,1.858615 0.113569,0.258388 0.188366,0.579877 0.386803,0.793426 0.08373,0.09011 0.185142,0.162383 0.270937,0.250527 0.485174,0.382241 1.039341,0.655665 1.594862,0.921317 1.022531,0.465185 2.072184,0.858638 3.088462,1.336904 0.921821,0.464605 1.85767,0.89693 2.758199,1.402522 0.609579,0.338692 1.273425,0.551299 1.91526,0.813315 0.450465,0.185796 0.861024,0.408593 1.347156,0.489453 0.02381,-0.0052 0.325733,-0.06997 0.346152,-0.08006 0.0508,-0.0251 0.08148,-0.08073 0.130894,-0.108456 0.05857,-0.03286 0.13019,-0.03771 0.188622,-0.07081 0.05976,-0.03386 0.221476,-0.161583 0.161731,-0.127692 -1.43863,0.816075 -2.866918,1.650249 -4.300377,2.475374 0.475201,-0.309588 0.93145,-0.644298 1.38757,-0.98065 0.396115,-0.273994 0.780528,-0.559434 1.154359,-0.86254 1.813913,-1.137733 3.490213,-2.811336 5.659196,-2.970798 0.553032,-0.0202 1.106963,-0.01537 1.660365,-0.01503 0.659059,0.0018 1.318096,0.009 1.977139,0.0143 0.925685,-0.02864 1.819543,0.177866 2.689763,0.472196 0.917767,0.273528 1.799987,0.649422 2.700425,0.973703 0.651864,0.288246 1.335931,0.464918 2.042349,0.542261 0.260883,-0.0038 0.533504,0.06275 0.794468,0.03198 0.201909,-0.0238 0.418335,-0.117086 0.618764,-0.160524 0.43,-0.225395 0.913329,-0.284239 1.389792,-0.325987 0.672076,-0.02921 1.343057,-0.04442 2.012124,0.02965 0.905285,0.23572 1.843872,0.279084 2.758561,0.45465 0.710431,0.09333 1.178986,0.215425 1.649472,0.773273 0.316295,0.454195 0.383957,0.993277 0.422194,1.530463 0.02352,0.512086 0.01608,1.024953 0.01314,1.537392 0.0083,0.515979 -0.170403,0.987079 -0.34667,1.461176 -0.214717,0.499922 -0.391907,1.014902 -0.579848,1.525266 -0.225136,0.575347 -0.296351,1.183985 -0.338921,1.795124 -0.08666,0.808232 0.07423,1.570226 0.403326,2.30285 0.396128,0.73076 0.933946,1.370384 1.428952,2.034175 0.576665,0.748294 1.170315,1.47903 1.708365,2.255943 0.75074,1.068089 1.51202,2.141639 2.39064,3.110592 0.34475,0.380209 1.16445,1.177205 1.53846,1.545325 1.07877,1.002964 2.1113,2.051327 3.12918,3.115436 0.58565,0.620394 1.10402,1.292795 1.71877,1.885973 0.98441,0.790497 1.75811,1.802276 2.62786,2.711136 1.40832,1.414846 2.91331,2.728705 4.47062,3.976203 0.72869,0.508405 1.38744,1.179827 2.22813,1.503535 0.50751,0.215828 1.05019,0.363515 1.59239,0.467633 0.59363,0.101283 1.19651,0.112546 1.79698,0.123278 0.58241,0.0055 1.16483,6.6e-5 1.74722,-0.0028 0.58671,-0.157919 1.17749,-0.217449 1.78146,-0.164624 0.98115,0.08873 1.96555,0.129948 2.95013,0.153895 0.79388,0.06821 1.10999,0.394313 1.30738,1.138045 0.1343,0.694656 -0.0296,1.372244 -0.21993,2.037501 -0.27189,0.783104 -0.7646,1.447374 -1.24566,2.110935 -0.55299,0.754243 -1.12782,1.492204 -1.70855,2.22521 -0.61303,0.754464 -1.14853,1.5669 -1.73794,2.33881 -0.50638,0.683517 -1.05993,1.329195 -1.59218,1.991926 -0.4947,0.67813 -0.99205,1.34996 -1.57226,1.957684 -0.70253,0.709066 -1.42536,1.396769 -2.19498,2.032736 -1.28686,0.914573 -2.27188,2.146231 -3.25372,3.364156 -0.90523,1.054017 -1.68333,2.191478 -2.3622,3.400591 -0.40938,0.811648 -0.75756,1.653121 -1.05813,2.510611 -0.22255,0.649266 -0.48308,1.284919 -0.6959,1.937426 -0.19352,0.631356 -0.48732,1.225043 -0.72485,1.840138 -0.21086,0.509348 -0.38579,1.025226 -0.47671,1.569325 -0.0734,0.438865 -0.20149,0.862979 -0.26193,1.304675 -0.10697,0.732769 -0.32326,1.444552 -0.507,2.160492 -0.28837,1.350482 -0.51443,2.715468 -0.68932,4.085333 -0.0903,0.754128 -0.12101,1.513115 -0.13074,2.27196 0.004,0.475921 -0.0327,0.952991 0.0555,1.422768 0.10894,0.453104 0.15469,0.915979 0.18195,1.380033 0.0511,0.510111 0.008,0.992507 -0.17689,1.469963 -0.231,0.528422 -0.67824,0.864166 -1.1093,1.217639 -0.37877,0.35153 -0.83476,0.59966 -1.25952,0.889526 -2.03265,1.292306 -4.05168,2.647166 -6.26188,3.616146 -0.1065,0.0554 -0.20984,0.11735 -0.31951,0.16616 -0.51428,0.22889 -0.19802,0.0255 -0.66747,0.29956 -0.0975,0.0569 -0.38282,0.23906 -0.28479,0.18312 4.04775,-2.30998 5.53257,-3.30556 3.91614,-2.23063 -0.46731,0.30128 -0.89513,0.66243 -1.29016,1.05273 -0.42919,0.44304 -0.67622,1.0203 -0.91725,1.57885 -0.40776,1.11277 -0.57792,2.28972 -0.67852,3.4648 -0.0308,0.73457 -0.14574,1.46117 -0.22312,2.19134 -0.004,0.56516 -0.20145,1.08586 -0.38609,1.61031 -0.23252,0.55858 -0.56117,1.06735 -0.92885,1.54508 -0.560837,0.63293 -1.235816,1.1544 -1.918431,1.64869 -0.776399,0.52432 -1.520594,1.09298 -2.285843,1.63314 -1.838536,1.21503 -3.721535,2.40364 -5.735103,3.30076 -0.455321,0.20286 -0.924096,0.38016 -1.380788,0.58155 -0.754827,0.32037 -1.505778,0.63998 -2.256466,0.96939 -1.122503,0.61486 0.506596,-0.26976 -0.589752,0.30076 -0.09264,0.0482 -0.362403,0.20774 -0.271852,0.15572 7.445128,-4.27703 5.150848,-3.08775 3.680288,-2.0702 -0.768052,0.50661 -1.430946,1.13377 -2.039576,1.81953 -0.777152,0.89424 -1.429444,1.88384 -2.065233,2.8805 -0.3242,0.47745 -0.617262,0.97733 -0.948649,1.44958 -0.216083,0.31894 -0.450314,0.63572 -0.73355,0.89843 -0.253758,0.34628 -0.521276,0.6555 -0.858105,0.9274 -2.415614,0.67019 -3.693771,2.65284 -5.947453,3.19082 -0.74214,0.12399 -1.49622,0.14324 -2.246866,0.15808 -0.860247,-0.0316 -1.728451,-0.1157 -2.580159,-0.24864 -0.965025,-0.1869 -1.901118,-0.48658 -2.826292,-0.8139 -0.875242,-0.30109 -1.528845,-0.84536 -2.082578,-1.5694 -0.439304,-0.62416 -0.576436,-1.37885 -0.727766,-2.11109 -0.128864,-0.66021 -0.281764,-1.31424 -0.379868,-1.98025 -0.135862,-0.65132 -0.227707,-1.31029 -0.344338,-1.96498 -0.131221,-0.73501 -0.199887,-1.47691 -0.348613,-2.20903 -0.2127,-0.82408 -0.252338,-1.67875 -0.457249,-2.50263 -0.250273,-0.98034 -0.629168,-1.91386 -1.015084,-2.84625 -0.460882,-1.04175 -0.859211,-2.10941 -1.259519,-3.17568 -0.57603,-1.42936 -1.165394,-2.85385 -1.709673,-4.29571 -0.429837,-1.08217 -0.835355,-2.1699 -1.165266,-3.28706 -0.245148,-0.90193 -0.311018,-1.8368 -0.344905,-2.76669 -0.04997,-0.77126 -0.02194,-1.537447 0.06944,-2.303695 0.110739,-0.69312 0.274552,-1.373285 0.505667,-2.035737 0.198509,-0.563528 0.392456,-1.128924 0.598894,-1.689616 0.236729,-0.566385 0.425613,-1.149808 0.660347,-1.716914 0.250556,-0.602122 0.339331,-1.243135 0.38751,-1.887988 0.04829,-0.72365 0.03971,-1.44937 0.0421,-2.174168 -0.0076,-0.682422 0.01579,-1.364099 -0.0682,-2.042356 -0.07342,-0.664016 -0.357282,-1.257043 -0.628927,-1.856391 -0.370011,-0.507161 -0.74971,-1.007593 -1.131666,-1.50609 -0.412393,-0.493269 -0.752973,-1.041613 -1.162593,-1.536412 -0.446,-0.57879 -0.871464,-1.168687 -1.305654,-1.75526 -0.441058,-0.489468 -0.804911,-1.034386 -1.175084,-1.575848 -0.411001,-0.510507 -0.753762,-1.070042 -1.09211,-1.63063 -0.439267,-0.503761 -0.822518,-1.038442 -1.157053,-1.616434 -0.38506,-0.659287 -0.615944,-1.375295 -0.767977,-2.118834 -0.106315,-0.671949 -0.230161,-1.339313 -0.302977,-2.015975 -0.05273,-0.660981 -0.07109,-1.323957 -0.08164,-1.986738 -0.0025,-0.59779 -0.19959,-1.164525 -0.3345,-1.740032 -0.08388,-0.3221 -0.09806,-0.683069 -0.255709,-0.983088 -0.06341,-0.120666 -0.151801,-0.2266 -0.221587,-0.343692 -0.244469,-0.301099 -0.442005,-0.663465 -0.78278,-0.865341 -0.31649,-0.250233 -0.592183,-0.558062 -0.954509,-0.742266 -0.298388,-0.247115 -0.644266,-0.421984 -0.953442,-0.649422 -0.319577,-0.328458 -0.745357,-0.491015 -1.126979,-0.72341 -0.459698,-0.291334 -0.937379,-0.545266 -1.464191,-0.687987 -0.399419,-0.249382 -0.879177,-0.24311 -1.304749,-0.402137 -0.454657,-0.15884 -0.944438,-0.176747 -1.421519,-0.198155 -0.515907,-0.01642 -1.032175,-0.01323 -1.548266,-0.01213 -0.503296,0.03094 -0.996412,0.1611 -1.502464,0.211555 -0.514642,0.06036 -1.036887,-0.0016 -1.545579,0.09616 -0.614213,0.151492 -1.22545,0.301206 -1.855858,0.384842 -0.726987,0.03916 -1.426786,0.254938 -2.135647,0.403969 -0.702771,0.06255 -1.38923,0.213315 -2.088019,0.300156 -0.610655,0.210951 -1.241113,0.30096 -1.882825,0.339084 -0.746743,0.03238 -1.495009,0.03483 -2.242392,0.02915 -0.826697,2.12e-4 -1.653395,-0.0047 -2.480091,-0.0032 -0.750599,0.05437 -1.48468,-0.04528 -2.22656,-0.136052 C 23.310747,63.573015 22.635812,63.393843 21.9984,63.13235 21.424223,62.82878 20.823987,62.606399 20.296535,62.222093 19.564904,61.758571 18.876771,61.219266 18.222611,60.651354 17.549382,60.095712 17.040837,59.393002 16.469009,58.743703 15.97541,58.207764 15.597661,57.586195 15.140686,57.020615 14.814265,56.546416 14.481024,56.081614 14.096691,55.651195 13.762846,55.235043 13.452875,54.801424 13.145574,54.36544 12.830186,53.941273 12.657717,53.451296 12.456385,52.970675 12.24243,52.531464 12.176695,52.051841 12.105957,51.574893 12.008056,50.944076 11.843581,50.326871 11.738321,49.697694 11.676814,49.17434 11.5592,48.658289 11.368372,48.167345 11.152021,47.821628 10.968728,47.459812 10.777785,47.09994 10.520351,46.548085 10.181417,46.051643 9.8345278,45.555089 9.4315272,45.004822 9.1889123,44.374635 8.898094,43.76465 8.5832888,43.03501 8.3006974,42.294469 8.0243627,41.549735 7.780573,40.952609 7.6350286,40.329471 7.5753162,39.689061 7.5385826,38.988534 7.5426871,38.286685 7.538078,37.58541 7.5361901,36.990248 7.5000096,36.397716 7.6124849,35.811088 7.7634134,35.213364 7.9394008,34.622618 8.1930482,34.0601 8.5042719,33.577853 8.8481164,33.113383 9.1998966,32.659391 9.5743485,32.128866 9.9783605,31.6205 10.380828,31.111237 c 0.337366,-0.438747 0.755428,-0.794215 1.205158,-1.111481 0.605015,-0.422604 1.205855,-0.850614 1.808135,-1.276852 0.508232,-0.376798 0.994314,-0.777141 1.527487,-1.12139 1.965129,-1.107923 4.156683,-2.621468 6.427953,-3.376452 0.450903,-0.297449 0.940291,-0.292778 1.367434,-0.622166 1.601446,-0.870233 1.44825,-0.789172 -4.113311,2.380552 -0.07054,0.04021 0.128995,-0.09891 0.196998,-0.143278 0.196527,-0.128224 0.398181,-0.252395 0.597423,-0.377055 0.382534,-0.239404 0.699618,-0.564324 1.038183,-0.859942 0.369967,-0.247811 0.682905,-0.567216 1.029757,-0.844127 0.30387,-0.282512 0.60225,-0.570661 0.884969,-0.874879 0.344089,-0.277391 0.582709,-0.650605 0.877062,-0.975125 0.286128,-0.415499 0.561699,-0.832313 0.875445,-1.228946 0.294607,-0.318105 0.560258,-0.662886 0.82467,-1.007077 0.247002,-0.359812 0.499446,-0.712894 0.768034,-1.056813 0.220039,-0.3783 0.496787,-0.724409 0.802145,-1.037299 0.202179,-0.24034 0.09547,-0.122627 0.320788,-0.352537 0,0 4.850696,-1.996278 4.850696,-1.996278 v 0 c -0.229397,0.20457 -0.116065,0.104268 -0.339925,0.300985 -0.251873,0.339673 -0.581015,0.608432 -0.829708,0.953106 -0.190155,0.416592 -0.550808,0.702659 -0.754423,1.113323 -0.265248,0.360893 -0.548941,0.695341 -0.800762,1.063349 -0.377099,0.325442 -0.686736,0.728976 -0.89317,1.184846 -0.256563,0.368253 -0.584417,0.677756 -0.836531,1.051868 -0.333951,0.250917 -0.571974,0.595263 -0.892342,0.85816 -0.298132,0.34553 -0.693577,0.583631 -1.004643,0.920238 -0.400321,0.225506 -0.706874,0.565652 -1.035409,0.879265 -1.795265,1.241206 -3.805687,2.173536 -5.651072,3.34567 -0.464537,0.179126 -0.93848,0.332269 -1.393209,0.538892 -1.881656,0.767648 -5.312872,2.485221 2.545384,-1.715206 -0.550274,0.307794 -1.091013,0.648773 -1.529047,1.107214 -0.635224,0.365125 -1.184195,0.854799 -1.808446,1.239685 -0.426362,0.328649 -0.89141,0.588839 -1.256209,0.989204 -0.413437,0.494932 -0.803941,1.005162 -1.205002,1.509093 -0.422391,0.713187 0.08188,-0.09379 -0.359503,0.493011 -0.216381,0.287673 -0.382396,0.620325 -0.649985,0.869987 -0.3557,0.47249 -0.479986,1.061451 -0.64828,1.619433 -0.17518,0.543575 -0.134396,1.098051 -0.138918,1.664455 -0.0065,0.686392 -0.01274,1.373513 0.02551,2.059173 0.0451,0.598132 0.140031,1.187949 0.361271,1.749733 0.265161,0.731287 0.532319,1.458243 0.85811,2.16593 0.2828,0.583482 0.50838,1.192635 0.912052,1.709916 0.34972,0.511177 0.677931,1.030312 0.963796,1.581151 0.230696,0.368987 0.43175,0.753196 0.647644,1.131001 0.199715,0.527727 0.334033,1.078571 0.389776,1.641424 0.09897,0.625301 0.268875,1.23345 0.379716,1.8563 0.09752,0.433685 0.10904,0.887931 0.30802,1.295314 0.183592,0.44684 0.322445,0.906854 0.627246,1.295044 0.298636,0.418928 0.582862,0.848412 0.913479,1.243304 0.38419,0.440047 0.723403,0.912861 1.046184,1.398186 0.444817,0.563514 0.809754,1.183417 1.293824,1.71628 0.550641,0.632527 1.050165,1.308891 1.701372,1.848119 0.659039,0.540751 1.332846,1.068437 2.068284,1.502876 0.526374,0.31061 1.094317,0.544528 1.646179,0.805616 0.623962,0.210259 1.262879,0.356063 1.920755,0.410087 0.7238,0.08802 1.446947,0.111957 2.176199,0.09508 0.826669,0.0032 1.653359,0.0016 2.480031,7.72e-4 0.744091,-0.0097 1.489834,-0.0038 2.231129,-0.07969 0.628461,-0.08155 1.236544,-0.244763 1.859585,-0.35543 0.688477,-0.116514 1.381977,-0.193135 2.067021,-0.328219 0.71693,-0.159362 1.434623,-0.309754 2.165895,-0.388685 0.627879,-0.113075 1.238501,-0.305304 1.873872,-0.373532 0.517299,-0.02661 1.036881,-0.02971 1.550602,-0.10391 0.511606,-0.07567 1.019732,-0.193279 1.540688,-0.159305 0.52232,0.0019 1.04523,0.0037 1.56642,0.04223 0.50943,0.04576 1.017672,0.113677 1.502388,0.285553 0.448412,0.09612 0.875853,0.24187 1.297047,0.423418 0.536406,0.205102 1.036283,0.485005 1.533739,0.770454 0.406717,0.218898 0.79583,0.461131 1.158733,0.748344 0.322441,0.195687 0.617452,0.428805 0.934872,0.632469 0.343885,0.239411 0.651825,0.524871 0.98331,0.780949 0.347791,0.29878 0.615281,0.669589 0.87767,1.043547 0.287178,0.461187 0.498124,0.933747 0.548982,1.484727 0.126273,0.614053 0.335421,1.209461 0.383781,1.83816 -0.0012,0.650446 -0.0029,1.301866 0.04788,1.950797 0.05876,0.665516 0.186032,1.3181 0.279838,1.978337 0.113136,0.694637 0.319094,1.351178 0.67723,1.962401 0.338846,0.573023 0.750951,1.084975 1.161962,1.60807 0.328714,0.556518 0.684683,1.095634 1.083941,1.60395 0.355212,0.540225 0.734651,1.061441 1.142327,1.564163 0.435756,0.577528 0.860812,1.160656 1.306783,1.730496 0.403279,0.506792 0.771777,1.039713 1.176732,1.544934 0.404219,0.528219 0.805213,1.060167 1.179924,1.609563 0.306172,0.64122 0.593735,1.286876 0.710505,1.994076 0.095,0.701904 0.103681,1.400868 0.08392,2.109065 0.0046,0.732231 0.0081,1.464722 -0.0075,2.196821 -0.04133,0.686413 -0.09719,1.378245 -0.327423,2.031874 -0.297853,0.844221 0.06508,-0.147899 -0.247984,0.605862 -0.149409,0.359737 -0.190773,0.756926 -0.399864,1.09375 -0.199988,0.568101 -0.418423,1.128699 -0.616046,1.697459 -0.234577,0.632934 -0.431521,1.266872 -0.550482,1.933915 -0.109389,0.745832 -0.189373,1.485763 -0.13762,2.242063 0.0256,0.891763 0.05971,1.789698 0.278325,2.659368 0.301723,1.1159 0.667763,2.20898 1.078257,3.28965 0.51912,1.44555 1.110199,2.8664 1.722128,4.27475 0.436834,1.04744 0.832061,2.10935 1.297924,3.14428 0.396324,0.95028 0.772991,1.90557 1.052788,2.89795 0.250718,0.82432 0.284265,1.68089 0.489908,2.517 0.173319,0.73333 0.255522,1.47808 0.362721,2.2228 0.123573,0.66029 0.232145,1.3224 0.372915,1.97942 0.07556,0.65959 0.226615,1.30087 0.355125,1.95072 0.134077,0.65594 0.216816,1.34577 0.595215,1.91504 0.497116,0.64151 1.131512,1.06737 1.904958,1.32466 0.904269,0.30552 1.818575,0.59553 2.767062,0.72792 0.848346,0.0916 1.701989,0.20249 2.556576,0.16408 0.730683,-0.0255 1.472241,-0.0572 2.175147,-0.27685 1.833092,-0.672 4.763719,-3.03856 -3.073198,1.90652 0.357872,-0.18086 0.738507,-0.40445 0.894799,-0.79138 0.227353,-0.30426 0.541534,-0.53319 0.776359,-0.83522 0.314426,-0.50056 0.665247,-0.98204 1.010286,-1.46411 0.643871,-1.02784 1.344579,-2.02515 2.103206,-2.97135 0.146259,-0.18617 0.608183,-0.78519 0.792123,-0.9807 0.329682,-0.35042 0.74944,-0.59722 1.088296,-0.93625 0.178211,-0.11233 0.336092,-0.2557 0.517665,-0.36251 1.827679,-1.0751 3.655015,-2.29553 5.623531,-3.1552 0.747917,-0.29901 1.468795,-0.66017 2.220538,-0.95093 0.453428,-0.19632 0.913176,-0.38114 1.354759,-0.60358 0.152477,-0.0768 0.59899,-0.32781 0.451722,-0.24143 -3.002529,1.76109 -5.443887,3.13795 -3.557124,2.07214 0.75907,-0.54326 1.510617,-1.09365 2.270563,-1.63483 0.687398,-0.45113 1.342145,-0.95848 1.943057,-1.51949 0.403061,-0.40154 0.713021,-0.87994 0.958834,-1.39249 0.254801,-0.43456 0.428237,-0.96346 0.472235,-1.4639 0.07765,-0.73915 0.234995,-1.46782 0.274319,-2.21046 0.124656,-1.21014 0.310598,-2.41417 0.631982,-3.5895 0.1859,-0.61579 0.400465,-1.20612 0.762765,-1.73956 0.379843,-0.43613 0.806356,-0.8154 1.257197,-1.17752 2.049178,-1.28046 4.094068,-2.57476 6.300138,-3.560155 1.75476,-0.886497 0.36103,-0.190059 -3.84813,2.255295 -0.10305,0.0599 0.20978,-0.11344 0.31102,-0.17631 0.19959,-0.12397 0.39405,-0.256 0.59181,-0.38286 0.086,-0.0552 0.16974,-0.11386 0.25461,-0.17079 0.43759,-0.25788 0.83617,-0.56991 1.28185,-0.81296 0.38581,-0.358297 0.85777,-0.610694 1.18162,-1.031391 0.25647,-0.377262 0.34843,-0.76567 0.29595,-1.222979 -0.0187,-0.438601 -0.0475,-0.878283 -0.15212,-1.306369 -0.11125,-0.508415 -0.10794,-1.015799 -0.0886,-1.535311 0.0183,-0.789902 0.0695,-1.578717 0.17833,-2.361844 0.19045,-1.383795 0.47335,-2.752492 0.68464,-4.133118 0.12972,-0.687735 0.25186,-1.378408 0.42756,-2.056098 0.0354,-0.450767 0.094,-0.899252 0.26253,-1.322734 0.064,-0.579641 0.18605,-1.14723 0.44422,-1.675126 0.20911,-0.622089 0.49669,-1.210708 0.73932,-1.818668 0.19284,-0.672757 0.46857,-1.314445 0.69162,-1.976734 0.39039,-0.923263 -0.11191,0.293979 0.27946,-0.764108 0.23082,-0.624006 0.55455,-1.213372 0.79519,-1.83361 0.69342,-1.254351 1.4698,-2.449817 2.42793,-3.522787 0.96083,-1.203191 1.8659,-2.485176 3.09824,-3.431013 0.79973,-0.574474 1.50902,-1.266344 2.19572,-1.970222 0.61909,-0.553292 1.11771,-1.199457 1.59139,-1.87918 0.49954,-0.701078 1.1218,-1.302084 1.6025,-2.018296 0.64315,-0.730798 1.13069,-1.581493 1.75339,-2.330358 0.55819,-0.735631 1.13985,-1.453166 1.69163,-2.193808 0.44728,-0.644506 0.96408,-1.241679 1.29557,-1.958972 0.20388,-0.563915 0.39204,-1.168749 0.32341,-1.773988 -0.10855,-0.586736 -0.34314,-0.531481 -0.90572,-0.586673 -0.983,-0.05001 -1.9654,-0.120768 -2.94961,-0.140419 -0.60695,0.03588 -1.19836,0.173889 -1.80543,0.193605 -0.58259,-3.37e-4 -1.16527,-6.15e-4 -1.74772,-0.0147 -0.62135,-0.02037 -1.24296,-0.07052 -1.851,-0.207043 -0.57047,-0.139734 -1.14615,-0.286029 -1.66912,-0.560758 -0.80284,-0.45215 -1.45877,-1.119385 -2.17504,-1.690846 -1.51294,-1.315485 -2.98468,-2.678978 -4.45068,-4.046297 -0.90351,-0.890544 -1.79049,-1.800069 -2.76179,-2.618074 -0.61137,-0.605917 -1.13571,-1.282087 -1.70707,-1.924731 -0.96502,-1.088579 -1.94162,-2.16604 -2.98633,-3.179803 -1.440761,-1.48084 -2.830749,-3.004283 -4.079357,-4.653796 -0.579486,-0.744576 -1.183188,-1.468919 -1.746398,-2.226158 -0.525487,-0.691018 -1.075061,-1.370645 -1.503349,-2.128361 -0.353754,-0.809599 -0.568482,-1.620657 -0.516913,-2.515138 0.01456,-0.651021 0.03696,-1.303866 0.253932,-1.925806 0.178485,-0.518072 0.362989,-1.030467 0.546851,-1.546007 0.199743,-0.404154 0.369711,-0.830321 0.442835,-1.275494 0.0032,-0.50275 0.0102,-1.005607 5.04e-4,-1.508319 -0.01582,-0.416046 -0.01705,-0.859892 -0.25442,-1.219401 -0.374988,-0.384028 -0.913864,-0.4066 -1.416721,-0.510127 -0.904894,-0.147529 -1.812502,-0.284215 -2.720096,-0.412175 -0.664834,-0.0142 -1.334387,-0.0032 -1.994269,0.08566 -0.470267,0.08509 -0.912533,0.252705 -1.376481,0.358844 -0.500435,0.09186 -1.001692,0.05145 -1.502413,-0.03209 -0.715441,-0.137553 -1.399921,-0.374775 -2.072396,-0.653892 -0.879731,-0.345011 -1.760448,-0.69412 -2.668472,-0.95844 -0.855571,-0.240585 -1.729469,-0.371549 -2.621316,-0.33046 -0.667918,0.0036 -1.335832,0.0073 -2.003758,0.0069 -0.542858,0.0022 -1.090612,-0.0056 -1.626969,0.09007 -0.170465,0.04215 -0.237555,0.05042 -0.397002,0.12182 -0.05895,0.0264 -0.226944,0.123446 -0.171086,0.091 8.353746,-4.851597 5.36303,-3.327326 4.010176,-2.286822 -0.453231,0.192663 -0.75399,0.605896 -1.19732,0.823911 -0.448025,0.340718 -0.887187,0.688954 -1.362724,0.991029 -1.559359,0.912544 -3.111298,1.837887 -4.678077,2.737632 -0.316047,0.181495 -0.71039,0.169765 -1.0496,0.08087 -0.477759,-0.143686 -0.907687,-0.387734 -1.373467,-0.563217 -0.658579,-0.253343 -1.301298,-0.547256 -1.916062,-0.894767 -0.886706,-0.491777 -1.793246,-0.946935 -2.704576,-1.390916 -1.029306,-0.467668 -2.087512,-0.866485 -3.124681,-1.316398 -0.613625,-0.282839 -1.23309,-0.581743 -1.7402,-1.03726 -0.370732,-0.347541 -0.6213,-0.755896 -0.757624,-1.250231 -0.240111,-0.656986 -0.422865,-1.330036 -0.460847,-2.032707 -0.0015,-0.598501 0.01393,-1.199063 -0.04513,-1.795518 -0.06825,-0.404762 -0.132038,-0.475746 -0.559417,-0.447848 -0.526336,0.03005 -1.052112,0.08732 -1.55375,0.260168 -0.617336,0.211561 -1.222006,0.461048 -1.848533,0.643085 -0.761507,0.178838 -1.522659,0.36592 -2.296603,0.483618 -0.765238,0.128915 -1.502796,0.369208 -2.270211,0.485854 -0.592388,0.101523 -1.165531,0.286684 -1.764312,0.352081 -0.558541,0.06079 -1.12177,0.04703 -1.679155,-0.0252 -0.545318,-0.08928 -1.06856,-0.247148 -1.560474,-0.504164 -0.477909,-0.193007 -0.969588,-0.3509 -1.438445,-0.566916 -0.447167,-0.130755 -0.870435,-0.324451 -1.322538,-0.438773 -0.487426,-0.134076 -0.987479,-0.219761 -1.494942,-0.197059 -0.559949,-0.002 -1.119903,-0.006 -1.679856,-0.0039 -0.510571,0.0057 -1.024472,0.0083 -1.529842,0.08932 -0.433187,0.09101 -0.822608,0.277383 -1.239307,0.418088 -0.425653,0.159027 -0.850012,0.327694 -1.288735,0.445979 -0.435698,0.152257 -0.853034,0.352116 -1.266608,0.555947 -0.223539,0.07866 -0.4532,0.158235 -0.669883,0.254325 -0.06657,0.02952 -0.256821,0.137295 -0.193867,0.100697 3.345965,-1.945144 5.778354,-3.329348 4.091559,-2.369011 -15.052541,8.75365 3.569132,-2.1084503 -1.201294,0.729712 -0.205288,0.181257 -0.455093,0.27553 -0.670464,0.442726 -0.0497,0.03858 -0.08181,0.09729 -0.132892,0.134028 -0.04868,0.03501 -0.108044,0.05207 -0.162066,0.0781 -0.355301,0.313648 0.0863,-0.09751 -0.252812,0.296578 -0.179599,0.208713 -0.500554,0.228798 -0.616202,0.509537 -0.339388,0.291503 -0.502035,0.725866 -0.799776,1.055591 -0.473321,0.420274 -0.88241,0.920368 -1.292497,1.399905 0,0 -4.852748,2.010073 -4.852748,2.010073 z"
       inkscape:connector-curvature="0" />
  </g>
  <text
     xml:space="preserve"
     style="font-style:normal;font-weight:normal;font-size:32px;line-height:1.25;font-family:sans-serif;letter-spacing:0px;word-spacing:0px;fill:#ff4500;fill-opacity:1;stroke:none;"
     x="11.964672"
     y="100.31312"
     id="text3728"><tspan
       sodipodi:role="line"
       id="tspan3726"
       x="11.964672"
       y="100.31312"
       style="font-style:normal;font-variant:normal;font-weight:normal;font-stretch:normal;font-family:'Bauhaus 93';-inkscape-font-specification:'Bauhaus 93, ';fill:#ff4500;fill-opacity:1;">AFRICA</tspan></text>
</svg>
